# Blender 3.3.0
# www.blender.org
mtllib pressureplate_rough.mtl
o pressure_plate
v 4.298982 0.000000 1.000000
v 4.298982 0.000000 -1.000000
v 6.298982 0.000000 -1.000000
v 6.298982 0.000000 1.000000
v 4.500190 0.100000 0.798792
v 4.500190 0.100000 -0.798792
v 6.097774 0.100000 -0.798792
v 6.097774 0.100000 0.798792
v 6.298982 0.100000 1.000000
v 4.298982 0.100000 1.000000
v 6.298982 0.100000 -1.000000
v 4.298982 0.100000 -1.000000
v 6.097774 0.150253 0.798792
v 6.028291 0.219735 0.729309
v 4.569673 0.219735 0.729309
v 4.500190 0.150253 0.798792
v 6.097774 0.150253 -0.798792
v 6.028291 0.219735 -0.729309
v 4.500190 0.150253 -0.798792
v 4.569673 0.219735 -0.729309
vn -0.0000 -0.0000 -1.0000
vn -0.0000 -1.0000 -0.0000
vn -0.0000 -0.0000 1.0000
vn 1.0000 -0.0000 -0.0000
vn -1.0000 -0.0000 -0.0000
vn -0.0000 1.0000 -0.0000
vn -0.0000 0.7071 0.7071
vn 0.7071 0.7071 -0.0000
vn -0.0000 0.7071 -0.7071
vn -0.7071 0.7071 -0.0000
vt 0.000000 0.500000
vt 0.600000 0.399396
vt 0.550000 0.899396
vt 0.000000 0.000000
vt 0.525000 0.899396
vt 0.550000 0.399396
vt 0.500000 0.000000
vt 0.575000 0.899396
vt 0.525000 0.399396
vt 0.500000 0.500000
vt 0.600000 0.899396
vt 0.575000 0.399396
vt 0.449698 0.949698
vt 0.612563 0.798792
vt 0.650253 0.399396
vt 0.625126 0.798792
vt 0.449698 0.550302
vt 0.612563 0.399396
vt 0.625126 0.399396
vt 0.050302 0.550302
vt 0.637690 0.798792
vt 0.050302 0.949698
vt 0.637690 0.399396
vt 0.650253 0.798792
vt 0.575000 0.899396
vt 0.550000 0.399396
vt 0.000000 1.000000
vt 0.575000 0.399396
vt 0.525000 0.899396
vt 0.500000 1.000000
vt 0.550000 0.899396
vt 0.500000 0.399396
vt 0.000000 0.500000
vt 0.500000 0.899396
vt 0.525000 0.399396
vt 0.500000 0.500000
vt 0.625126 0.399396
vt 0.500000 0.399396
vt 0.637690 0.798792
vt 0.517371 0.382025
vt 0.882025 0.382025
vt 0.600000 0.798792
vt 0.899396 0.399396
vt 0.637690 0.399396
vt 0.612563 0.399396
vt 0.625126 0.798792
vt 0.500000 0.000000
vt 0.517371 0.017371
vt 0.612563 0.798792
vt 0.600000 0.399396
vt 0.899396 0.000000
vt 0.882025 0.017371
s 0
usemtl Procedural_Brick
f 7/19/1 6/16/1 19/49/1 17/45/1
f 4/10/2 1/1/2 2/4/2 3/7/2
f 4/11/3 9/25/3 10/28/3 1/2/3
f 3/8/4 11/31/4 9/26/4 4/12/4
f 2/5/1 12/34/1 11/32/1 3/9/1
f 1/3/5 10/29/5 12/35/5 2/6/5
f 8/22/6 5/13/6 10/30/6 9/27/6
f 7/20/6 8/22/6 9/27/6 11/33/6
f 6/17/6 7/20/6 11/33/6 12/36/6
f 5/13/6 6/17/6 12/36/6 10/30/6
f 8/23/4 7/21/4 17/46/4 13/37/4
f 6/18/5 5/14/5 16/42/5 19/50/5
f 14/40/6 18/48/6 20/52/6 15/41/6
f 14/40/7 15/41/7 16/43/7 13/38/7
f 18/48/8 14/40/8 13/38/8 17/47/8
f 20/52/9 18/48/9 17/47/9 19/51/9
f 15/41/10 20/52/10 19/51/10 16/43/10
f 5/15/3 8/24/3 13/39/3 16/44/3
